<svg xmlns="http://www.w3.org/2000/svg" viewBox="0 0 60 64"><path fill="#0078D7" d="M18.87 38c0 1.54.23 2.94.7 4.2a11.89 11.89 0 0 0 4.92 5.82c1.1.7 2.3 1.28 3.58 1.73 1.27.46 2.6.8 3.95 1.02a26.87 26.87 0 0 0 8.83-.07 34.58 34.58 0 0 0 8.62-2.79c1.4-.64 2.82-1.34 4.28-2.12v13.56a48.12 48.12 0 0 1-9.66 3.49c-1.63.4-3.28.7-4.97.88S35.7 64 33.9 64c-2.4 0-4.72-.28-6.95-.83s-4.32-1.34-6.28-2.38-3.75-2.3-5.38-3.78a23.89 23.89 0 0 1-7.87-18.02c0-2.63.36-5.13 1.08-7.52a24 24 0 0 1 8.07-11.91 26.19 26.19 0 0 1 6.58-3.8 13.88 13.88 0 0 0-3.1 4.73 20.46 20.46 0 0 0-1.43 5.48H41.4c0-2.3-.23-4.3-.7-6.02s-1.22-3.15-2.27-4.28a9.45 9.45 0 0 0-4.03-2.56 18.37 18.37 0 0 0-5.97-.86c-2.75 0-5.5.4-8.25 1.23-2.75.8-5.36 1.95-7.84 3.4a37.99 37.99 0 0 0-6.84 5.18 32.3 32.3 0 0 0-5.25 6.48c.3-2.7.9-5.3 1.73-7.77s1.93-4.77 3.25-6.9c1.32-2.1 2.87-4.02 4.64-5.74s3.73-3.2 5.9-4.4 4.47-2.17 6.97-2.82C25.24.34 27.9 0 30.7 0c1.64 0 3.27.15 4.9.44 1.63.3 3.22.7 4.77 1.22a28.14 28.14 0 0 1 18.11 19.12c.86 2.97 1.3 6.06 1.3 9.27V38H18.87z"/></svg>