<?xml version="1.0" encoding="UTF-8" standalone="no"?>
<svg
   xmlns:dc="http://purl.org/dc/elements/1.1/"
   xmlns:cc="http://creativecommons.org/ns#"
   xmlns:rdf="http://www.w3.org/1999/02/22-rdf-syntax-ns#"
   xmlns:svg="http://www.w3.org/2000/svg"
   xmlns="http://www.w3.org/2000/svg"
   xmlns:sodipodi="http://sodipodi.sourceforge.net/DTD/sodipodi-0.dtd"
   xmlns:inkscape="http://www.inkscape.org/namespaces/inkscape"
   viewBox="0 0 304 304"
   width="304"
   height="304"
   version="1.1"
   id="svg4"
   sodipodi:docname="circuit-board.svg"
   inkscape:version="0.92.4 (5da689c313, 2019-01-14)">
  <metadata
     id="metadata10">
    <rdf:RDF>
      <cc:Work
         rdf:about="">
        <dc:format>image/svg+xml</dc:format>
        <dc:type
           rdf:resource="http://purl.org/dc/dcmitype/StillImage" />
      </cc:Work>
    </rdf:RDF>
  </metadata>
  <defs
     id="defs8" />
  <sodipodi:namedview
     pagecolor="#ffffff"
     bordercolor="#666666"
     borderopacity="1"
     objecttolerance="10"
     gridtolerance="10"
     guidetolerance="10"
     inkscape:pageopacity="0"
     inkscape:pageshadow="2"
     inkscape:window-width="1191"
     inkscape:window-height="784"
     id="namedview6"
     showgrid="false"
     inkscape:zoom="1.5526316"
     inkscape:cx="133.83266"
     inkscape:cy="131.71753"
     inkscape:window-x="753"
     inkscape:window-y="286"
     inkscape:window-maximized="0"
     inkscape:current-layer="svg4" />
  <path
     d="m 44.1,224 a 5,5 0 1 1 0,2 H 0 v -2 z"
     id="path3943" />
  <path
     d="m 204.1,272 a 5,5 0 1 1 0,2 H 82 v -2 z"
     id="path3941" />
  <path
     d="m 261.9,226 a 5,5 0 1 1 0,-2 H 304 v 2 z"
     id="path3939" />
  <path
     d="m 261.9,242 a 5,5 0 1 1 0,-2 H 304 v 2 z"
     id="path3937" />
  <path
     d="m 268.1,128 a 5,5 0 1 1 0,2 h -86.2 a 5,5 0 1 1 0,-2 z"
     id="path3935" />
  <path
     d="m 12.1,80 a 5,5 0 1 1 0,2 H 0 v -2 z"
     id="path3933" />
  <path
     d="m 197.9,114 a 5,5 0 1 1 0,-2 h 86.2 a 5,5 0 1 1 0,2 z"
     id="path3931" />
  <path
     d="m 258,12.1 a 5,5 0 1 1 -2,0 V 0 h 2 z"
     id="path3929" />
  <path
     d="m 194,220.1 a 5,5 0 1 1 -2,0 v -54.2 a 5,5 0 1 1 2,0 z"
     id="path3927" />
  <path
     d="M 242,21.9 V 80 h 62 v 2 H 240 V 21.9 a 5,5 0 1 1 2,0 z"
     id="path3925" />
  <path
     d="M 258,37.9 V 64 h 46 v 2 H 256 V 37.9 a 5,5 0 1 1 2,0 z"
     id="path3923" />
  <path
     d="M 130,133.9 V 208 h 16 v 12.1 a 5,5 0 1 1 -2,0 V 210 h -16 v -76.1 a 5,5 0 1 1 2,0 z"
     id="path3921" />
  <path
     d="m 124.1,112 a 5,5 0 1 1 0,2 H 114 v 48 H 85.9 a 5,5 0 1 1 0,-2 H 112 v -48 z"
     id="path3919" />
  <path
     d="m 117.9,242 a 5,5 0 1 1 0,-2 H 176 v -74.1 a 5,5 0 1 1 2,0 V 242 Z"
     id="path3917" />
  <path
     d="m 101.9,178 a 5,5 0 1 1 0,-2 H 114 v 48 h 10.1 a 5,5 0 1 1 0,2 H 112 v -48 z"
     id="path3915" />
  <path
     d="m 66,284.1 a 5,5 0 1 1 -2,0 V 274 H 50 v 30 h -2 v -32 h 18 z"
     id="path3913" />
  <path
     d="m 236.1,176 a 5,5 0 1 1 0,2 H 226 v 94 h 48 v 32 h -2 v -30 h -48 v -98 z"
     id="path3911" />
  <path
     d="m 261.9,146 a 5,5 0 1 1 0,-2 H 274 v 44.1 a 5,5 0 1 1 -2,0 V 146 Z"
     id="path3909" />
  <path
     d="m 197.9,242 a 5,5 0 1 1 0,-2 H 208 v -80 h 16 v -14 h -42.1 a 5,5 0 1 1 0,-2 H 226 v 18 h -16 v 80 z"
     id="path3907" />
  <path
     d="m 284.1,32 a 5,5 0 1 1 0,2 H 272 V 0 h 2 v 32 z"
     id="path3905" />
  <path
     d="M 98,101.9 V 146 H 53.9 a 5,5 0 1 1 0,-2 H 96 v -42.1 a 5,5 0 1 1 2,0 z"
     id="path3903" />
  <path
     d="m 53.9,34 a 5,5 0 1 1 0,-2 H 80 V 0 h 2 v 34 z"
     id="path3901" />
  <path
     d="M 114,37.9 V 66 H 82 v 64 H 69.9 a 5,5 0 1 1 0,-2 H 80 V 64 h 32 V 37.9 a 5,5 0 1 1 2,0 z"
     id="path3899" />
  <path
     d="m 101.9,82 a 5,5 0 1 1 0,-2 H 128 V 37.9 a 5,5 0 1 1 2,0 V 82 Z"
     id="path3897" />
  <path
     d="m 117.9,18 a 5,5 0 1 1 0,-2 H 146 v 44.1 a 5,5 0 1 1 -2,0 V 18 Z"
     id="path3895" />
  <path
     d="m 220.1,288 a 5,5 0 1 1 0,2 H 98 v 14 h -2 v -16 z"
     id="path3893" />
  <path
     d="M 242,149.9 V 160 h 16 v 34 h -16 v 62 h 48 v 48 h -2 v -46 h -48 v -66 h 16 v -30 h -16 v -12.1 a 5,5 0 1 1 2,0 z"
     id="path3891" />
  <path
     d="m 53.9,18 a 5,5 0 1 1 0,-2 H 64 V 2 H 48 V 0 h 18 v 18 z"
     id="path3889" />
  <path
     d="m 165.9,50 a 5,5 0 1 1 0,-2 H 192 V 0 h 50 v 2 h -48 v 48 z"
     id="path3887" />
  <path
     d="m 117.9,2 a 5.0009999,5.0009999 0 0 1 -9.8,-2 h 2.07 a 3,3 0 1 0 5.66,0 H 178 V 34 H 160 V 21.9 a 5,5 0 1 1 2,0 V 32 h 14 V 2 Z"
     id="path3885" />
  <path
     d="m 117.9,98 a 5,5 0 1 1 0,-2 H 137 l 32,-32 h 39 V 21.9 a 5,5 0 1 1 2,0 V 66 h -40.17 l -32,32 z"
     id="path3883" />
  <path
     d="m 146,188.1 a 5,5 0 1 1 -2,0 V 111.59 L 175.59,80 H 224 V 21.9 a 5,5 0 1 1 2,0 V 82 H 176.41 L 146,112.41 Z"
     id="path3881" />
  <path
     d="m 162,220.1 a 5,5 0 1 1 -2,0 V 120.59 L 184.59,96 H 300.1 a 5,5 0 0 1 3.9,-3.9 v 2.07 a 3,3 0 0 0 0,5.66 v 2.07 A 5,5 0 0 1 300.1,98 H 185.41 L 162,121.41 Z"
     id="path3879" />
  <path
     d="m 18,156.1 a 5,5 0 1 1 -2,0 v -3.51 l 48,-48 V 48 H 96 V 0 h 2 V 50 H 66 v 55.41 l -48,48 z"
     id="path3877" />
  <path
     d="m 50,53.9 v 43.51 l -48,48 V 208 h 26.1 a 5,5 0 1 1 0,2 H 0 v -65.41 l 48,-48 V 53.9 a 5,5 0 1 1 2,0 z"
     id="path3875" />
  <path
     d="m 34,69.9 v 19.51 l -34,34 v -2.82 l 32,-32 V 69.9 a 5,5 0 1 1 2,0 z"
     id="path3873" />
  <path
     d="m 12.1,32 a 5,5 0 1 1 0,2 H 9.41 L 0,43.41 V 40.6 L 8.59,32 Z"
     id="path3871" />
  <path
     d="m 277.9,50 a 5,5 0 1 1 0,-2 h 18.69 L 304,40.59 v 2.82 L 297.41,50 Z"
     id="path3869" />
  <path
     d="m 261.9,210 a 5,5 0 1 1 0,-2 H 288 v -71.41 l 16,-16 v 2.82 l -14,14 V 210 Z"
     id="path3867" />
  <path
     d="m 53.9,242 a 5,5 0 1 1 0,-2 H 64 V 217.41 L 40.59,194 H 21.9 a 5,5 0 1 1 0,-2 H 41.41 L 66,216.59 V 242 Z"
     id="path3865" />
  <path
     d="m 204.1,256 a 5,5 0 1 1 0,2 H 96 V 201.4 L 56.6,162 H 37.9 a 5,5 0 1 1 0,-2 H 57.4 L 98,200.6 V 256 Z"
     id="path3863" />
  <path
     d="m 53.9,258 a 5,5 0 1 1 0,-2 H 80 V 209.41 L 48.59,178 H 21.9 a 5,5 0 1 1 0,-2 H 49.41 L 82,208.59 V 258 Z"
     id="path3861" />
  <path
     d="m 34,39.8 v 1.61 L 9.41,66 H 0 V 64 H 8.59 L 32,40.59 V 0 h 2 z"
     id="path3859" />
  <path
     d="M 2,300.1 A 5,5 0 0 1 5.9,304 H 3.83 A 3,3 0 0 0 0,302.17 V 256 h 18 v 48 H 16 V 258 H 2 Z"
     id="path3857" />
  <path
     d="m 34,241 v 63 H 32 V 242 H 0 v -2 h 34 z"
     id="path3855" />
  <path
     d="M 17,18 H 0 V 16 H 16 V 0 h 2 v 18 z"
     id="path3853" />
  <path
     d="m 290,16 h 14 v 2 H 288 V 0 h 2 z"
     id="path3851" />
  <path
     d="m 258,289 v 15 h -2 v -14 h -14 v 14 h -2 v -16 h 18 z"
     id="path3849" />
  <path
     d="M 0,92.1 A 5.02,5.02 0 0 1 6,97 5,5 0 0 1 0,101.9 V 99.83 A 3,3 0 1 0 0,94.17 Z"
     id="path3847" />
  <path
     d="m 80,272 h 2 v 32 h -2 z"
     id="path3845" />
  <path
     d="m 117.9,304 h -2.07 a 3,3 0 0 0 -5.66,0 h -2.07 a 5,5 0 0 1 9.8,0 z"
     id="path3843" />
  <path
     d="M 5.9,0 A 5.02,5.02 0 0 1 0,5.9 V 3.83 A 3,3 0 0 0 3.83,0 Z"
     id="path3841" />
  <path
     d="m 300.1,0 h 2.07 A 3,3 0 0 0 304,3.83 V 5.9 A 5,5 0 0 1 300.1,0 Z"
     id="path3839" />
  <path
     d="m 304,300.1 v 2.07 a 3,3 0 0 0 -1.83,1.83 h -2.07 a 5,5 0 0 1 3.9,-3.9 z"
     id="path3837" />
  <path
     d="m 97,100 a 3,3 0 1 0 0,-6 3,3 0 0 0 0,6 z"
     id="path3835" />
  <path
     d="m 97,84 a 3,3 0 1 0 0,-6 3,3 0 0 0 0,6 z"
     id="path3833" />
  <path
     d="m 113,100 a 3,3 0 1 0 0,-6 3,3 0 0 0 0,6 z"
     id="path3831" />
  <path
     d="m 129,116 a 3,3 0 1 0 0,-6 3,3 0 0 0 0,6 z"
     id="path3829" />
  <path
     d="m 129,132 a 3,3 0 1 0 0,-6 3,3 0 0 0 0,6 z"
     id="path3827" />
  <path
     d="m 81,164 a 3,3 0 1 0 0,-6 3,3 0 0 0 0,6 z"
     id="path3825" />
  <path
     d="m 97,180 a 3,3 0 1 0 0,-6 3,3 0 0 0 0,6 z"
     id="path3823" />
  <path
     d="m 129,228 a 3,3 0 1 0 0,-6 3,3 0 0 0 0,6 z"
     id="path3821" />
  <path
     d="m 113,244 a 3,3 0 1 0 0,-6 3,3 0 0 0 0,6 z"
     id="path3819" />
  <path
     d="m 145,228 a 3,3 0 1 0 0,-6 3,3 0 0 0 0,6 z"
     id="path3817" />
  <path
     d="m 145,196 a 3,3 0 1 0 0,-6 3,3 0 0 0 0,6 z"
     id="path3815" />
  <path
     d="m 161,228 a 3,3 0 1 0 0,-6 3,3 0 0 0 0,6 z"
     id="path3813" />
  <path
     d="m 193,244 a 3,3 0 1 0 0,-6 3,3 0 0 0 0,6 z"
     id="path3811" />
  <path
     d="m 193,228 a 3,3 0 1 0 0,-6 3,3 0 0 0 0,6 z"
     id="path3809" />
  <path
     d="m 177,164 a 3,3 0 1 0 0,-6 3,3 0 0 0 0,6 z"
     id="path3807" />
  <path
     d="m 193,164 a 3,3 0 1 0 0,-6 3,3 0 0 0 0,6 z"
     id="path3805" />
  <path
     d="m 209,260 a 3,3 0 1 0 0,-6 3,3 0 0 0 0,6 z"
     id="path3803" />
  <path
     d="m 209,276 a 3,3 0 1 0 0,-6 3,3 0 0 0 0,6 z"
     id="path3801" />
  <path
     d="m 225,292 a 3,3 0 1 0 0,-6 3,3 0 0 0 0,6 z"
     id="path3799" />
  <path
     d="m 241,148 a 3,3 0 1 0 0,-6 3,3 0 0 0 0,6 z"
     id="path3797" />
  <path
     d="m 241,180 a 3,3 0 1 0 0,-6 3,3 0 0 0 0,6 z"
     id="path3795" />
  <path
     d="m 257,148 a 3,3 0 1 0 0,-6 3,3 0 0 0 0,6 z"
     id="path3793" />
  <path
     d="m 273,132 a 3,3 0 1 0 0,-6 3,3 0 0 0 0,6 z"
     id="path3791" />
  <path
     d="m 177,132 a 3,3 0 1 0 0,-6 3,3 0 0 0 0,6 z"
     id="path3789" />
  <path
     d="m 177,148 a 3,3 0 1 0 0,-6 3,3 0 0 0 0,6 z"
     id="path3787" />
  <path
     d="m 193,116 a 3,3 0 1 0 0,-6 3,3 0 0 0 0,6 z"
     id="path3785" />
  <path
     d="m 289,116 a 3,3 0 1 0 0,-6 3,3 0 0 0 0,6 z"
     id="path3783" />
  <path
     d="m 273,52 a 3,3 0 1 0 0,-6 3,3 0 0 0 0,6 z"
     id="path3781" />
  <path
     d="m 289,36 a 3,3 0 1 0 0,-6 3,3 0 0 0 0,6 z"
     id="path3779" />
  <path
     d="m 257,36 a 3,3 0 1 0 0,-6 3,3 0 0 0 0,6 z"
     id="path3777" />
  <path
     d="m 257,20 a 3,3 0 1 0 0,-6 3,3 0 0 0 0,6 z"
     id="path3775" />
  <path
     d="m 241,20 a 3,3 0 1 0 0,-6 3,3 0 0 0 0,6 z"
     id="path3773" />
  <path
     d="m 225,20 a 3,3 0 1 0 0,-6 3,3 0 0 0 0,6 z"
     id="path3771" />
  <path
     d="m 209,20 a 3,3 0 1 0 0,-6 3,3 0 0 0 0,6 z"
     id="path3769" />
  <path
     d="m 49,36 a 3,3 0 1 0 0,-6 3,3 0 0 0 0,6 z"
     id="path3767" />
  <path
     d="m 17,36 a 3,3 0 1 0 0,-6 3,3 0 0 0 0,6 z"
     id="path3765" />
  <path
     d="m 49,52 a 3,3 0 1 0 0,-6 3,3 0 0 0 0,6 z"
     id="path3763" />
  <path
     d="m 33,68 a 3,3 0 1 0 0,-6 3,3 0 0 0 0,6 z"
     id="path3761" />
  <path
     d="m 49,20 a 3,3 0 1 0 0,-6 3,3 0 0 0 0,6 z"
     id="path3759" />
  <path
     d="m 49,260 a 3,3 0 1 0 0,-6 3,3 0 0 0 0,6 z"
     id="path3757" />
  <path
     d="m 65,292 a 3,3 0 1 0 0,-6 3,3 0 0 0 0,6 z"
     id="path3755" />
  <path
     d="m 49,228 a 3,3 0 1 0 0,-6 3,3 0 0 0 0,6 z"
     id="path3753" />
  <path
     d="m 49,244 a 3,3 0 1 0 0,-6 3,3 0 0 0 0,6 z"
     id="path3751" />
  <path
     d="m 33,212 a 3,3 0 1 0 0,-6 3,3 0 0 0 0,6 z"
     id="path3749" />
  <path
     d="m 113,36 a 3,3 0 1 0 0,-6 3,3 0 0 0 0,6 z"
     id="path3747" />
  <path
     d="m 129,36 a 3,3 0 1 0 0,-6 3,3 0 0 0 0,6 z"
     id="path3745" />
  <path
     d="m 113,20 a 3,3 0 1 0 0,-6 3,3 0 0 0 0,6 z"
     id="path3743" />
  <path
     d="m 145,68 a 3,3 0 1 0 0,-6 3,3 0 0 0 0,6 z"
     id="path3741" />
  <path
     d="m 161,52 a 3,3 0 1 0 0,-6 3,3 0 0 0 0,6 z"
     id="path3739" />
  <path
     d="m 161,20 a 3,3 0 1 0 0,-6 3,3 0 0 0 0,6 z"
     id="path3737" />
  <path
     d="m 273,196 a 3,3 0 1 0 0,-6 3,3 0 0 0 0,6 z"
     id="path3735" />
  <path
     d="m 257,212 a 3,3 0 1 0 0,-6 3,3 0 0 0 0,6 z"
     id="path3733" />
  <path
     d="m 257,228 a 3,3 0 1 0 0,-6 3,3 0 0 0 0,6 z"
     id="path3731" />
  <path
     d="m 257,244 a 3,3 0 1 0 0,-6 3,3 0 0 0 0,6 z"
     id="path3729" />
  <path
     d="m 17,180 a 3,3 0 1 0 0,-6 3,3 0 0 0 0,6 z"
     id="path3727" />
  <path
     d="m 17,196 a 3,3 0 1 0 0,-6 3,3 0 0 0 0,6 z"
     id="path3725" />
  <path
     d="m 17,164 a 3,3 0 1 0 0,-6 3,3 0 0 0 0,6 z"
     id="path3723" />
  <path
     d="m 33,164 a 3,3 0 1 0 0,-6 3,3 0 0 0 0,6 z"
     id="path3721" />
  <path
     d="m 17,84 a 3,3 0 1 0 0,-6 3,3 0 0 0 0,6 z"
     id="path3719" />
  <path
     d="m 49,148 a 3,3 0 1 0 0,-6 3,3 0 0 0 0,6 z"
     id="path3717" />
  <path
     d="m 65,132 a 3,3 0 1 0 0,-6 3,3 0 0 0 0,6 z"
     id="path2" />
</svg>
